# xmcd
#
# Track frame offsets: 
#        150
#        19548
#        35014
#        50322
#        65635
#        87921
#        102185
#        118156
#        133308
#        152909
#        190502
#
# Disc length: 2673 seconds
#
# Revision: 0
# Processed by: cddbd v1.5.2PL0 Copyright (c) Steve Scherf et al.
# Submitted via: ExactAudioCopy v0.99pb4
#
DISCID=920a6f0b
DTITLE=One Night Only - Started a Fire
DYEAR=2008
DGENRE=Indie
TTITLE0=Just for Tonight
TTITLE1=It's about Time
TTITLE2=You and Me
TTITLE3=He's There
TTITLE4=Start Over
TTITLE5=Time
TTITLE6=Stay at Home
TTITLE7=It's Alright
TTITLE8=Sweet Sugar
TTITLE9=Hide
TTITLE10=Data
EXTD=
EXTT0=
EXTT1=
EXTT2=
EXTT3=
EXTT4=
EXTT5=
EXTT6=
EXTT7=
EXTT8=
EXTT9=
EXTT10=
PLAYORDER=
